<?xml version="1.0" encoding="UTF-8"?>
<svg width="95.175mm" height="62.175mm" version="1.1" viewBox="0 0 95.175 62.175" xmlns="http://www.w3.org/2000/svg">
 <path d="m93.852 10.229v44.892c0 3.1749-2.599 5.7309-5.8274 5.7309h-77.699c-3.2284 0-5.8275-2.556-5.8275-5.7309v-44.892c0-3.1749 2.599-5.7309 5.8275-5.7309h77.699c3.2284 0 5.8274 2.556 5.8274 5.7309m1.3229-1.0539v47c0 3.324-2.676 6-6 6h-80c-3.324 0-6-2.676-6-6v-47c0-3.324 2.676-6 6-6h80c3.324 0 6 2.676 6 6" style="fill-rule:evenodd;fill:#cccccc"/>
 <path d="m44.338 41.158v-10.021h-9.9963v-3.299h9.9963v-9.9963h3.3238v9.9963h9.9963v3.299h-9.9963v10.021h-3.3238m47.662-35.158v47c0 3.324-2.676 6-6 6h-80c-3.324 0-6-2.676-6-6v-47c0-3.324 2.676-6 6-6l80-1.4215e-14c3.324 0 6 2.676 6 6" style="fill-rule:evenodd;fill:#cccccc"/>
</svg>
