<?xml version="1.0" encoding="UTF-8"?>
<svg id="svg30" width="56.096mm" height="13.226mm" version="1.1" viewBox="0 0 56.096 13.226" xmlns="http://www.w3.org/2000/svg">
	<g id="layer1" transform="translate(-28.328 -95.96)">
		<text id="text34" x="29.576632" y="107.07555" style="fill:#000000;font-family:sans-serif;font-size:14.111px;letter-spacing:1.36px;line-height:1.25;stroke-width:.26458" xml:space="preserve"><tspan id="tspan32" x="29.576632" y="107.07555" dx="0" style="fill:none;font-family:Consolas;font-size:14.111px;stroke-width:.26458">DECARD</tspan></text>
		<path id="path49" d="m44.8 106.34-6.2787 9e-3 2.2941-1.6651 6.2787-9e-3zm-0.05228-2.94-6.2787 9e-3 2.2941-1.6651 6.2787-9e-3zm-0.05228-2.94-6.2787 9e-3 2.2941-1.6651 6.2787-9e-3z" style="fill:none;stroke-width:.5;stroke:#000000"/>
		<g id="text838" style="fill:#000000;stroke-width:.26458" aria-label="DECARD">
			<path id="path840" d="m36.832 102.47q0 0.64768-0.10335 1.2402-0.09646 0.59255-0.31695 1.1024-0.22049 0.50987-0.57189 0.93017-0.3514 0.41341-0.86127 0.70969t-1.1851 0.46164q-0.67524 0.15848-1.5365 0.15848h-1.9293v-9.0055h2.322q2.1084 0 3.1419 1.0886 1.0404 1.0818 1.0404 3.3142zm-1.2885 0.0896q0-0.95773-0.17914-1.6192-0.17914-0.66146-0.54432-1.068-0.36518-0.40652-0.9164-0.58567-0.55122-0.18604-1.2954-0.18604h-1.0542v6.9109h0.9164q3.073 0 3.073-3.452z" style="stroke-width:.26458"/>
			<path id="path842" d="m45.199 107.08h-5.1194v-9.0055h5.1194v1.0335h-3.893v2.7905h3.7414v1.0335h-3.7414v3.1006h3.893z" style="fill:none"/>
			<path id="path844" d="m54.669 106.74q-1.0818 0.44786-2.2669 0.44786-1.9086 0-2.9352-1.1369-1.0197-1.1438-1.0197-3.3762 0-1.0818 0.2825-1.9568 0.2825-0.87505 0.80615-1.4814 0.52365-0.61323 1.2678-0.94396 0.74414-0.33073 1.6674-0.33073 0.62701 0 1.1644 0.11024 0.53744 0.10335 1.0335 0.32384v1.2058q-0.4892-0.26872-1.0129-0.40652-0.52365-0.14469-1.1438-0.14469-0.6339 0-1.1507 0.24116-0.50987 0.23427-0.86816 0.68902-0.35829 0.44786-0.55122 1.1024-0.19292 0.64768-0.19292 1.4814 0 1.7501 0.70969 2.639 0.70969 0.88883 2.0808 0.88883 0.57878 0 1.1093-0.13091 0.53054-0.13781 1.0197-0.37896z" style="stroke-width:.26458"/>
			<path id="path846" d="m64.621 107.08h-1.3367l-0.62701-1.9637h-3.7483l-0.6339 1.9637h-1.2747l2.9903-9.0055h1.6812zm-2.3151-3.0592-1.5227-4.8162-1.5227 4.8162z" style="stroke-width:.26458"/>
			<path id="path848" d="m73.291 107.08h-1.3849l-1.3436-2.8801q-0.15158-0.33073-0.31006-0.54433-0.15847-0.22048-0.34451-0.34451-0.17914-0.13091-0.39963-0.18603-0.2136-0.0551-0.48231-0.0551h-0.57878v4.0101h-1.2265v-9.0055h2.4116q0.78548 0 1.3505 0.17225 0.565 0.17226 0.92328 0.48231 0.36518 0.31006 0.53054 0.75103 0.17225 0.43408 0.17225 0.96463 0 0.4203-0.12402 0.79926-0.12402 0.37207-0.37207 0.68213-0.24116 0.30317-0.60634 0.53054-0.35829 0.22049-0.82682 0.33073 0.37896 0.13091 0.64079 0.46164 0.26872 0.32384 0.54432 0.86817zm-1.9637-6.5319q0-0.72347-0.45475-1.0818-0.44786-0.35829-1.2678-0.35829h-1.1576v2.9766h0.99219q0.43408 0 0.77859-0.0965 0.3514-0.10335 0.59256-0.29628 0.24805-0.19981 0.37896-0.48231 0.1378-0.28939 0.1378-0.66146z" style="stroke-width:.26458"/>
			<path id="path850" d="m82.424 102.47q0 0.64768-0.10335 1.2402-0.09646 0.59255-0.31695 1.1024-0.22049 0.50987-0.57189 0.93017-0.3514 0.41341-0.86127 0.70969t-1.1851 0.46164q-0.67524 0.15848-1.5365 0.15848h-1.9293v-9.0055h2.322q2.1084 0 3.1419 1.0886 1.0404 1.0818 1.0404 3.3142zm-1.2885 0.0896q0-0.95773-0.17914-1.6192-0.17914-0.66146-0.54432-1.068-0.36518-0.40652-0.9164-0.58567-0.55122-0.18604-1.2954-0.18604h-1.0542v6.9109h0.9164q3.073 0 3.073-3.452z" style="stroke-width:.26458"/>
		</g>
	</g>
</svg>
