<?xml version="1.0" encoding="UTF-8" standalone="no"?>
<!-- Created with Inkscape (http://www.inkscape.org/) -->

<svg
   xmlns:dc="http://purl.org/dc/elements/1.1/"
   xmlns:cc="http://creativecommons.org/ns#"
   xmlns:rdf="http://www.w3.org/1999/02/22-rdf-syntax-ns#"
   xmlns:svg="http://www.w3.org/2000/svg"
   xmlns="http://www.w3.org/2000/svg"
   xmlns:sodipodi="http://sodipodi.sourceforge.net/DTD/sodipodi-0.dtd"
   xmlns:inkscape="http://www.inkscape.org/namespaces/inkscape"
   width="95.17495mm"
   height="62.174969mm"
   viewBox="0 0 95.17495 62.174969"
   version="1.1"
   id="svg8"
   inkscape:version="0.92.2 (5c3e80d, 2017-08-06)"
   sodipodi:docname="add-deck.svg">
  <sodipodi:namedview
     id="base"
     pagecolor="#ffffff"
     bordercolor="#666666"
     borderopacity="1.0"
     inkscape:pageopacity="0.0"
     inkscape:pageshadow="2"
     inkscape:zoom="1.4"
     inkscape:cx="63.647752"
     inkscape:cy="162.64142"
     inkscape:document-units="mm"
     inkscape:current-layer="layer1"
     showgrid="false"
     inkscape:window-width="1920"
     inkscape:window-height="1000"
     inkscape:window-x="-11"
     inkscape:window-y="-11"
     inkscape:window-maximized="1"
     fit-margin-top="0"
     fit-margin-left="0"
     fit-margin-right="0"
     fit-margin-bottom="0"
     inkscape:snap-global="true" />
  <defs
     id="defs2" />
  <metadata
     id="metadata5">
    <rdf:RDF>
      <cc:Work
         rdf:about="">
        <dc:format>image/svg+xml</dc:format>
        <dc:type
           rdf:resource="http://purl.org/dc/dcmitype/StillImage" />
        <dc:title></dc:title>
      </cc:Work>
    </rdf:RDF>
  </metadata>
  <g
     inkscape:label="Layer 1"
     inkscape:groupmode="layer"
     id="layer1">
    <path
       id="path4539"
       style="stroke-width:0.0356794481104;font-size:50.79999924px;font-family:Gadugi;fill:#cccccc;fill-opacity:1;fill-rule:evenodd;letter-spacing:0px;-inkscape-font-specification:Gadugi;font-style:normal;word-spacing:0px;stroke:none;font-stretch:normal;text-anchor:start;font-variant:normal;font-weight:normal;line-height:1.25;text-align:start"
       d="M93.85209 10.22883C93.85209 10.22883 93.85209 55.12111 93.85209 55.12111C93.85209 58.29604 91.25305 60.85204 88.02464 60.85204C88.02464 60.85204 10.32526 60.85204 10.32526 60.85204C7.096854 60.85204 4.497804 58.29604 4.497804 55.12111C4.497804 55.12111 4.497804 10.22883 4.497804 10.22883C4.497804 7.05389 7.096854 4.4979 10.32526 4.4979C10.32526 4.4979 88.02464 4.4979 88.02464 4.4979C91.25305 4.4979 93.85209 7.05389 93.85209 10.22883C93.85209 10.22883 93.85209 10.22883 93.85209 10.22883M95.17495 9.17496C95.17495 9.17496 95.17495 56.17497 95.17495 56.17497C95.17495 59.49897 92.49895 62.17497 89.17495 62.17497C89.17495 62.17497 9.17495 62.17497 9.17495 62.17497C5.850954 62.17497 3.174954 59.49897 3.174954 56.17497C3.174954 56.17497 3.174954 9.17496 3.174954 9.17496C3.174954 5.85096 5.850954 3.17496 9.17495 3.17496C9.17495 3.17496 89.17495 3.17496 89.17495 3.17496C92.49895 3.17496 95.17495 5.85096 95.17495 9.17496C95.17495 9.17496 95.17495 9.17496 95.17495 9.17496" />
    <path
       id="path4510"
       style="fill:#cccccc;fill-rule:evenodd;fill-opacity:1"
       d="M44.33808 41.1582C44.33808 41.1582 44.33808 31.13711 44.33808 31.13711C44.33808 31.13711 34.3418 31.13711 34.3418 31.13711C34.3418 31.13711 34.3418 27.83809 34.3418 27.83809C34.3418 27.83809 44.33808 27.83809 44.33808 27.83809C44.33808 27.83809 44.33808 17.8418 44.33808 17.8418C44.33808 17.8418 47.66191 17.8418 47.66191 17.8418C47.66191 17.8418 47.66191 27.83809 47.66191 27.83809C47.66191 27.83809 57.6582 27.83809 57.6582 27.83809C57.6582 27.83809 57.6582 31.13711 57.6582 31.13711C57.6582 31.13711 47.66191 31.13711 47.66191 31.13711C47.66191 31.13711 47.66191 41.1582 47.66191 41.1582C47.66191 41.1582 44.33808 41.1582 44.33808 41.1582M91.999996 6.000001C91.999996 6.000001 91.999996 53.0 91.999996 53.0C91.999996 56.324 89.323996 59.0 85.999996 59.0C85.999996 59.0 6.0 59.0 6.0 59.0C2.676 59.0 0.0 56.324 0.0 53.0C0.0 53.0 0.0 6.000001 0.0 6.000001C0.0 2.676001 2.676 1.00000001169e-06 6.0 1.00000001169e-06C6.0 1.00000001169e-06 85.999996 9.99999997475e-07 85.999996 9.99999997475e-07C89.323996 9.99999997475e-07 91.999996 2.676001 91.999996 6.000001C91.999996 6.000001 91.999996 6.000001 91.999996 6.000001" />
  </g>
</svg>
