<?xml version="1.0" encoding="UTF-8"?>
<svg width="222.97mm" height="161.52mm" version="1.1" viewBox="0 0 222.97 161.52" xmlns="http://www.w3.org/2000/svg">
 <path d="m137.24 159.87c-0.38884-0.14511-0.89911-0.39108-1.1339-0.54658-1.0248-0.67865-51.5-49.142-51.998-49.926-0.77194-1.2143-0.88497-3.0362-0.2681-4.3212 0.32727-0.68174 10.221-11.137 40.003-42.273 43.405-45.378 40.156-42.154 42.487-42.146 0.66213 0.0025135 1.4084 0.14472 1.8777 0.35783 0.53688 0.2438 8.8175 8.0434 26.655 25.106 20.571 19.679 25.952 24.922 26.246 25.576 0.52281 1.1614 0.49182 3.0247-0.068117 4.0946-0.23172 0.44279-2.838 3.3343-5.7918 6.4256-53.935 56.446-73.619 76.919-74.334 77.311-1.0057 0.55237-2.6889 0.70803-3.6754 0.33989" style="fill-rule:evenodd;fill:#668000"/>
 <path d="m86.5 99.466c0.049025-0.15592 5.8066-21.077 12.795-46.491 6.988-25.414 12.827-46.501 12.976-46.859 0.74122-1.7842 2.4213-2.9163 4.3157-2.9081 0.91229 0.0039238 7.887 1.8642 34.875 9.3016 18.554 5.1132 34.032 9.3998 34.396 9.5258 1.0579 0.36635 2.3786 1.8103 2.7261 2.9805 0.16373 0.55135 0.29756 1.2209 0.2974 1.4879-1.6404e-4 0.26698-0.46953 2.1863-1.043 4.2652-0.5735 2.0789-1.1295 4.0987-1.2354 4.4886l-0.19271 0.70883-8.0226-7.6825c-4.4124-4.2254-8.3076-7.8762-8.6559-8.1129-1.7457-1.1862-4.28-1.3447-6.232-0.38968-0.9799 0.47942-4.8295 4.4434-38.172 39.306-42.994 44.954-38.939 40.737-38.827 40.379" style="fill-rule:evenodd;fill:#668000"/>
 <path d="m91.064 123.01c-3.4892-0.97048-6.5601-1.9294-6.9494-2.17-1.4527-0.89779-2.3343-2.7245-2.1385-4.4308 0.061394-0.53496 0.3913-1.9637 0.73313-3.175l0.6215-2.2023 3.9698 3.8087c2.1834 2.0948 5.4151 5.1906 7.1815 6.8795 1.7665 1.6889 3.1267 3.0613 3.0228 3.0497-0.10394-0.011589-3.0023-0.80356-6.4409-1.76" style="fill-rule:evenodd;fill:#668000"/>
 <path d="m84.748 134.14c-1.1725-0.36406-2.1556-1.2345-2.7183-2.4065-0.39226-0.81716-2.1969-10.709-10.42-57.118-7.3931-41.723-9.9161-56.329-9.8298-56.907 0.17633-1.1795 1.185-2.7111 2.1961-3.3346 0.80054-0.49374 2.6124-0.84419 23.707-4.5853 12.562-2.2279 22.878-4.013 22.924-3.967s-5.8483 21.667-13.098 48.046l-13.182 47.962s-0.74358 0.89614-0.74358 0.89614c-0.40897 0.49288-0.92028 1.2956-1.1363 1.7838-0.47766 1.0798-0.64989 2.9127-0.36919 3.9289 0.18494 0.66952 0.11447 1.0863-0.65493 3.8743-0.47419 1.7182-0.90808 3.5556-0.9642 4.0831-0.24578 2.3102 1.3085 5.0661 3.4151 6.0551 0.32571 0.15292 4.1097 1.2452 8.409 2.4272l7.8168 2.1492 2.1206 2.0923c1.506 1.4859 2.034 2.1173 1.8216 2.1786-0.71119 0.20548-17.587 3.1305-17.993 3.1186-0.24682-0.0072496-0.83147-0.132-1.2992-0.27723" style="fill-rule:evenodd;fill:#668000"/>
 <path d="m68.7 11.522c1.1898-0.97188 10.802-8.4656 11.135-8.6807 1.3608-0.87989 3.6689-0.77637 5.0535 0.22667 0.40395 0.29262 1.5147 1.5197 2.4682 2.7268 1.5941 2.0179 1.6997 2.2026 1.311 2.2922-0.65716 0.15139-19.664 3.4994-19.867 3.4994-0.098753 0-0.14412-0.028944-0.10081-0.06432" style="fill-rule:evenodd;fill:#668000"/>
 <path d="m50.993 88.085c-15.164-19.259-27.769-35.398-28.01-35.866-0.36252-0.7026-0.42798-1.0804-0.37656-2.1734 0.11462-2.4359-0.96924-1.4577 19.258-17.38 9.9909-7.8646 18.192-14.273 18.224-14.24 0.092244 0.093619 18.598 104.55 18.533 104.62-0.031689 0.031689-12.465-15.699-27.629-34.958" style="fill-rule:evenodd;fill:#668000"/>
 <path d="m46.4 111.59c-42.384-28.204-43.673-29.08-44.244-30.034-0.71983-1.2032-0.89916-2.3436-0.56882-3.6171 0.19102-0.73641 2.497-4.3341 9.9455-15.517 5.3333-8.0069 9.7298-14.525 9.7701-14.485 0.040326 0.040325-0.026929 0.47144-0.14946 0.95803-0.29541 1.1732-0.11718 2.7146 0.45483 3.9338 0.28106 0.59903 11.796 15.377 29.084 37.327 0 0 28.619 36.335 28.619 36.335l0.41736 2.4073c0.28417 1.6391 0.59946 2.7827 0.98799 3.5836 0.91469 1.8854 2.7289 3.1177 4.9793 3.3822l1.0903 0.12815s1.6351 2.0701 1.6351 2.0701c1.7631 2.2321 2.0195 2.6037 1.7862 2.5882-0.083121-0.0055298-19.796-13.083-43.807-29.061" style="fill-rule:evenodd;fill:#668000"/>
 <path d="m95.488 143.44c-0.33897-0.12294-0.9038-0.45291-1.2552-0.73328-0.57213-0.45651-5.8372-6.9602-5.7253-7.0722 0.025162-0.025162 3.9012-0.73182 8.6134-1.5704l8.5677-1.5246 1.0665 0.9293c0.58657 0.51111 1.3449 1.2194 1.6851 1.5739l0.61863 0.64461-4.5417 3.5772c-2.4979 1.9675-4.9024 3.7662-5.3433 3.9971-0.90652 0.47484-2.6373 0.55855-3.6858 0.17827" style="fill-rule:evenodd;fill:#668000"/>
 <path d="m98.189 145.96c-1.1329-0.57999-1.1498-0.6894-0.12509-0.81075 1.4065-0.16657 2.4221-0.78371 6.2526-3.7994 1.918-1.51 3.5209-2.7118 3.562-2.6707 0.041106 0.041106-0.89032 1.502-2.0698 3.2465-2.6128 3.8642-3.1421 4.2895-5.437 4.3689-1.1364 0.039336-1.5873-0.029781-2.1826-0.33457" style="fill-rule:evenodd;fill:#668000"/>
 <path d="m131.99 5.652c-5.2449-1.4541-7.79-2.2389-7.5595-2.3311 0.65598-0.26232 10.175-1.8581 11.079-1.8572 1.6422 0.0015505 3.1555 0.92135 3.966 2.4105 0.27177 0.49934 0.60922 1.5925 0.75862 2.4577 0.2446 1.4164 0.24152 1.5562-0.033811 1.5353-0.16661-0.01265-3.861-1.0095-8.2098-2.2151" style="fill-rule:evenodd;fill:#668000"/>
 <path d="m22.82 45.594c0-0.063095 4.1987-6.425 9.3303-14.138 7.189-10.805 9.4896-14.127 10.024-14.478 1.4343-0.94044 3.522-1.0976 4.8883-0.368 1.2402 0.66228 6.9278 4.5934 6.8032 4.7022-0.2601 0.22708-30.351 23.893-30.704 24.149-0.1879 0.13582-0.34165 0.19533-0.34165 0.13223" style="fill-rule:evenodd;fill:#668000"/>
</svg>
