<?xml version="1.0" encoding="UTF-8" standalone="no"?>
<!-- Created with Inkscape (http://www.inkscape.org/) -->

<svg
   xmlns:dc="http://purl.org/dc/elements/1.1/"
   xmlns:cc="http://creativecommons.org/ns#"
   xmlns:rdf="http://www.w3.org/1999/02/22-rdf-syntax-ns#"
   xmlns:svg="http://www.w3.org/2000/svg"
   xmlns="http://www.w3.org/2000/svg"
   xmlns:sodipodi="http://sodipodi.sourceforge.net/DTD/sodipodi-0.dtd"
   xmlns:inkscape="http://www.inkscape.org/namespaces/inkscape"
   width="222.97057mm"
   height="161.51564mm"
   viewBox="0 0 222.97057 161.51564"
   version="1.1"
   id="svg8"
   inkscape:version="0.92.2 (5c3e80d, 2017-08-06)"
   sodipodi:docname="card-splay.svg">
  <defs
     id="defs2" />
  <sodipodi:namedview
     id="base"
     pagecolor="#ffffff"
     bordercolor="#666666"
     borderopacity="1.0"
     inkscape:pageopacity="0.0"
     inkscape:pageshadow="2"
     inkscape:zoom="0.49497475"
     inkscape:cx="201.42415"
     inkscape:cy="426.91755"
     inkscape:document-units="mm"
     inkscape:current-layer="layer1"
     showgrid="false"
     fit-margin-top="0"
     fit-margin-left="0"
     fit-margin-right="0"
     fit-margin-bottom="0"
     inkscape:window-width="1920"
     inkscape:window-height="1000"
     inkscape:window-x="-11"
     inkscape:window-y="-11"
     inkscape:window-maximized="1" />
  <metadata
     id="metadata5">
    <rdf:RDF>
      <cc:Work
         rdf:about="">
        <dc:format>image/svg+xml</dc:format>
        <dc:type
           rdf:resource="http://purl.org/dc/dcmitype/StillImage" />
        <dc:title></dc:title>
      </cc:Work>
    </rdf:RDF>
  </metadata>
  <g
     inkscape:label="Layer 1"
     inkscape:groupmode="layer"
     id="layer1"
     transform="translate(107.04915,-73.546009)">
    <path
       style="opacity:1;vector-effect:none;fill:#668000;fill-opacity:1;fill-rule:evenodd;stroke:none;stroke-width:3.57142854;stroke-linecap:butt;stroke-linejoin:miter;stroke-miterlimit:4;stroke-dasharray:none;stroke-dashoffset:0;stroke-opacity:1"
       d="m 518.7079,604.247 c -1.46964,-0.54846 -3.39821,-1.47808 -4.28571,-2.06583 -3.8731,-2.56498 -194.6473,-185.73471 -196.52946,-188.69557 -2.91756,-4.58966 -3.34476,-11.47526 -1.01328,-16.33191 1.23694,-2.57664 38.6308,-42.09166 151.19423,-159.7707 C 632.12393,65.877245 619.84301,78.05941 628.65526,78.092695 c 2.50253,0.0095 5.32326,0.546982 7.09692,1.352416 2.02914,0.921457 33.32595,30.400429 100.74214,94.890659 77.75022,74.37575 98.08567,94.19177 99.19924,96.66541 1.97598,4.38936 1.85883,11.43188 -0.25745,15.47576 -0.8758,1.67353 -10.72645,12.6021 -21.89032,24.28571 -203.85053,213.34089 -278.24653,290.71676 -280.94665,292.19974 -3.80113,2.0877 -10.16284,2.67601 -13.89124,1.28461 z"
       id="path892"
       inkscape:connector-curvature="0"
       transform="matrix(0.26458333,0,0,0.26458333,-107.04915,73.546009)" />
    <path
       style="opacity:1;vector-effect:none;fill:#668000;fill-opacity:1;fill-rule:evenodd;stroke:none;stroke-width:3.57142854;stroke-linecap:butt;stroke-linejoin:miter;stroke-miterlimit:4;stroke-dasharray:none;stroke-dashoffset:0;stroke-opacity:1"
       d="m 326.92968,375.93415 c 0.18529,-0.58929 21.9461,-79.66071 48.35735,-175.71429 26.41125,-96.05357 48.48063,-175.750551 49.04309,-177.104405 2.80147,-6.743317 9.15124,-11.022081 16.31128,-10.991295 3.44804,0.01483 29.80909,7.0457 131.81001,35.155648 70.125,19.325414 128.625,35.526707 130,36.002871 3.99837,1.384643 8.99,6.842028 10.30342,11.2648 0.61883,2.08385 1.12465,4.614407 1.12403,5.623461 -6.2e-4,1.00905 -1.7746,8.26321 -3.94215,16.12035 -2.16757,7.85715 -4.2688,15.4913 -4.6694,16.96477 l -0.72836,2.67906 -30.3215,-29.0363 C 657.54063,90.92885 642.81876,77.130548 641.50221,76.235921 634.90422,71.752475 625.32586,71.153559 617.94816,74.76313 614.24461,76.57511 599.69483,91.557065 473.67603,223.32054 311.17763,393.22656 326.50426,377.28714 326.92968,375.93415 Z"
       id="path894"
       inkscape:connector-curvature="0"
       transform="matrix(0.26458333,0,0,0.26458333,-107.04915,73.546009)" />
    <path
       style="opacity:1;vector-effect:none;fill:#668000;fill-opacity:1;fill-rule:evenodd;stroke:none;stroke-width:3.57142854;stroke-linecap:butt;stroke-linejoin:miter;stroke-miterlimit:4;stroke-dasharray:none;stroke-dashoffset:0;stroke-opacity:1"
       d="m 344.17932,464.91506 c -13.18738,-3.66795 -24.79412,-7.2922 -26.26529,-8.20144 -5.49035,-3.39322 -8.82259,-10.29733 -8.08248,-16.74618 0.23204,-2.02188 1.47894,-7.42186 2.77088,-11.99994 l 2.34898,-8.3238 15.00384,14.39522 c 8.2521,7.91738 20.46639,19.618 27.14285,26.00138 6.67647,6.38338 11.8176,11.57034 11.42474,11.52659 -0.39285,-0.0438 -11.34744,-3.03708 -24.34352,-6.65183 z"
       id="path896"
       inkscape:connector-curvature="0"
       transform="matrix(0.26458333,0,0,0.26458333,-107.04915,73.546009)" />
    <path
       style="opacity:1;vector-effect:none;fill:#668000;fill-opacity:1;fill-rule:evenodd;stroke:none;stroke-width:3.57142854;stroke-linecap:butt;stroke-linejoin:miter;stroke-miterlimit:4;stroke-dasharray:none;stroke-dashoffset:0;stroke-opacity:1"
       d="m 320.30856,506.97945 c -4.43139,-1.37597 -8.14728,-4.66575 -10.27374,-9.09559 -1.48256,-3.08849 -8.30338,-40.47579 -39.38411,-215.87828 C 242.70826,124.31375 233.17243,69.108806 233.49886,66.925442 c 0.66646,-4.457796 4.47867,-10.246527 8.30005,-12.60338 3.02568,-1.866102 9.8738,-3.190645 89.60021,-17.330204 47.47827,-8.420321 86.46647,-15.167347 86.64042,-14.993393 0.17395,0.173954 -22.10372,81.889575 -49.50595,181.590275 l -49.82222,181.27398 -2.8104,3.38699 c -1.54572,1.86284 -3.47824,4.89674 -4.29449,6.742 -1.80532,4.08124 -2.45626,11.00854 -1.39535,14.8494 0.69897,2.53046 0.43265,4.10583 -2.47532,14.64285 -1.79221,6.49403 -3.43211,13.43858 -3.64422,15.43232 -0.92894,8.73151 4.94562,19.14748 12.90732,22.88546 1.23102,0.57796 15.5329,4.70618 31.78195,9.1738 l 29.54373,8.12298 8.01495,7.90773 c 5.6921,5.61597 7.68742,8.00237 6.88484,8.23425 -2.68797,0.77662 -66.4721,11.83173 -68.00542,11.78676 -0.93286,-0.0274 -3.14255,-0.49888 -4.9104,-1.04781 z"
       id="path898"
       inkscape:connector-curvature="0"
       transform="matrix(0.26458333,0,0,0.26458333,-107.04915,73.546009)" />
    <path
       style="opacity:1;vector-effect:none;fill:#668000;fill-opacity:1;fill-rule:evenodd;stroke:none;stroke-width:3.57142854;stroke-linecap:butt;stroke-linejoin:miter;stroke-miterlimit:4;stroke-dasharray:none;stroke-dashoffset:0;stroke-opacity:1"
       d="m 259.65379,43.548194 c 4.49706,-3.673253 40.82602,-31.995913 42.08334,-32.808865 5.14335,-3.3255654 13.86669,-2.9342975 19.1,0.856692 1.52674,1.105965 5.72469,5.743683 9.32877,10.306039 6.02493,7.626886 6.42413,8.324853 4.95491,8.663327 -2.48375,0.572197 -74.32129,13.225906 -75.08602,13.225906 -0.37324,0 -0.54469,-0.109394 -0.381,-0.243099 z"
       id="path900"
       inkscape:connector-curvature="0"
       transform="matrix(0.26458333,0,0,0.26458333,-107.04915,73.546009)" />
    <path
       style="opacity:1;vector-effect:none;fill:#668000;fill-opacity:1;fill-rule:evenodd;stroke:none;stroke-width:3.57142854;stroke-linecap:butt;stroke-linejoin:miter;stroke-miterlimit:4;stroke-dasharray:none;stroke-dashoffset:0;stroke-opacity:1"
       d="M 192.72851,332.91895 C 135.41539,260.13089 87.776529,199.13058 86.86437,197.36272 c -1.370149,-2.65548 -1.617571,-4.08353 -1.423202,-8.21428 0.433205,-9.20653 -3.663264,-5.50952 72.786962,-65.68921 37.76094,-29.724469 68.75558,-53.94369 68.87696,-53.820497 0.34864,0.353835 70.28978,395.161487 70.04686,395.404407 -0.11977,0.11977 -47.11032,-59.33612 -104.42344,-132.12419 z"
       id="path902"
       inkscape:connector-curvature="0"
       transform="matrix(0.26458333,0,0,0.26458333,-107.04915,73.546009)" />
    <path
       style="opacity:1;vector-effect:none;fill:#668000;fill-opacity:1;fill-rule:evenodd;stroke:none;stroke-width:3.57142854;stroke-linecap:butt;stroke-linejoin:miter;stroke-miterlimit:4;stroke-dasharray:none;stroke-dashoffset:0;stroke-opacity:1"
       d="M 175.37195,421.77271 C 15.181245,315.17321 10.307192,311.86461 8.1503622,308.25933 5.4297425,303.71164 4.751961,299.40161 6.000504,294.58836 6.7224791,291.80507 15.43796,278.20744 43.5898,235.9427 c 20.157168,-30.26224 36.774095,-54.89755 36.926503,-54.74514 0.152414,0.15241 -0.101779,1.78182 -0.564872,3.62091 -1.116493,4.434 -0.442871,10.26002 1.719057,14.8678 1.062272,2.26404 44.582832,58.11877 109.924232,141.07784 l 108.16576,137.32996 1.57743,9.09861 c 1.07404,6.19511 2.26566,10.51727 3.73415,13.54422 3.45711,7.12605 10.31392,11.7836 18.81942,12.78326 l 4.12091,0.48433 6.17978,7.8239 c 6.6635,8.43633 7.63268,9.84067 6.75098,9.78212 -0.31416,-0.0209 -74.8212,-49.44787 -165.5712,-109.8378 z"
       id="path904"
       inkscape:connector-curvature="0"
       transform="matrix(0.26458333,0,0,0.26458333,-107.04915,73.546009)" />
    <path
       style="opacity:1;vector-effect:none;fill:#668000;fill-opacity:1;fill-rule:evenodd;stroke:none;stroke-width:3.57142854;stroke-linecap:butt;stroke-linejoin:miter;stroke-miterlimit:4;stroke-dasharray:none;stroke-dashoffset:0;stroke-opacity:1"
       d="m 360.89972,542.12353 c -1.28116,-0.46464 -3.41594,-1.71179 -4.74397,-2.77144 -2.16238,-1.72541 -22.06199,-26.30642 -21.63891,-26.7295 0.0951,-0.0951 14.74465,-2.76593 32.55459,-5.93522 l 32.38172,-5.76234 4.03083,3.51232 c 2.21695,1.93177 5.08298,4.60866 6.36894,5.94864 l 2.33813,2.43633 -17.16544,13.5202 c -9.44099,7.43611 -18.52886,14.23436 -20.19527,15.10722 -3.42622,1.79466 -9.96764,2.11105 -13.93062,0.67379 z"
       id="path906"
       inkscape:connector-curvature="0"
       transform="matrix(0.26458333,0,0,0.26458333,-107.04915,73.546009)" />
    <path
       style="opacity:1;vector-effect:none;fill:#668000;fill-opacity:1;fill-rule:evenodd;stroke:none;stroke-width:3.57142854;stroke-linecap:butt;stroke-linejoin:miter;stroke-miterlimit:4;stroke-dasharray:none;stroke-dashoffset:0;stroke-opacity:1"
       d="m 371.10744,551.64274 c -4.28172,-2.19207 -4.34553,-2.60559 -0.4728,-3.06426 5.31573,-0.62957 9.15427,-2.96207 23.63172,-14.35994 7.24907,-5.70708 13.30725,-10.24939 13.46261,-10.09403 0.15536,0.15536 -3.36498,5.67694 -7.82299,12.27017 -9.87501,14.60479 -11.87553,16.21232 -20.54941,16.51256 -4.2949,0.14867 -5.99906,-0.11256 -8.24913,-1.2645 z"
       id="path908"
       inkscape:connector-curvature="0"
       transform="matrix(0.26458333,0,0,0.26458333,-107.04915,73.546009)" />
    <path
       style="opacity:1;vector-effect:none;fill:#668000;fill-opacity:1;fill-rule:evenodd;stroke:none;stroke-width:3.57142854;stroke-linecap:butt;stroke-linejoin:miter;stroke-miterlimit:4;stroke-dasharray:none;stroke-dashoffset:0;stroke-opacity:1"
       d="m 498.86316,21.36186 c -19.82341,-5.49592 -29.44236,-8.462021 -28.57143,-8.810298 2.47929,-0.991447 38.45613,-7.0227471 41.87161,-7.0195229 6.20661,0.00586 11.9263,3.4822583 14.98964,9.1106319 1.02718,1.88726 2.30255,6.01902 2.86723,9.288808 0.92448,5.353272 0.91285,5.881584 -0.12779,5.80257 -0.62969,-0.04781 -14.59285,-3.815296 -31.02926,-8.372189 z"
       id="path912"
       inkscape:connector-curvature="0"
       transform="matrix(0.26458333,0,0,0.26458333,-107.04915,73.546009)" />
    <path
       style="opacity:1;vector-effect:none;fill:#668000;fill-opacity:1;fill-rule:evenodd;stroke:none;stroke-width:3.57142854;stroke-linecap:butt;stroke-linejoin:miter;stroke-miterlimit:4;stroke-dasharray:none;stroke-dashoffset:0;stroke-opacity:1"
       d="m 86.247538,172.32553 c 0,-0.23847 15.868932,-24.28349 35.264302,-53.43336 27.17092,-40.835988 35.86613,-53.394383 37.88663,-54.719191 5.42094,-3.55442 13.31158,-4.148438 18.47543,-1.390857 4.68731,2.503093 26.18383,17.361038 25.71287,17.772194 -0.98307,0.858239 -114.712091,90.305834 -116.047973,91.271444 -0.710192,0.51335 -1.291259,0.73825 -1.291259,0.49977 z"
       id="path914"
       inkscape:connector-curvature="0"
       transform="matrix(0.26458333,0,0,0.26458333,-107.04915,73.546009)" />
  </g>
</svg>
